ffmpeg started on 2026-04-09 at 19:35:56
Report written to "D:\Convert\FFMetrics\reports\ssim_report-6.txt"
Log level: 32
Command line:
ffmpeg -hide_banner -nostdin -r 24000/1001 -i "F:\\Convert\\files\\[DC] Make Heroine ga Oosugiru - 07_Telegram_HEVC(307).mkv" -r 24000/1001 -i "F:\\Convert\\files\\[DC] Make Heroine ga Oosugiru - 07_Telegram.mp4" -lavfi "[0:v]settb=AVTB,setpts=PTS-STARTPTS,format=pix_fmts=yuv420p10le,fps=24000/1001,scale=1920:1080:flags=lanczos:param0=3:out_range=limited:out_color_matrix=bt709:out_chroma_loc=left,setsar=1/1,setdar=(1920/1080)*(1/1),colorspace=format=yuv420p10:range=tv:primaries=bt709:trc=bt709:space=bt709:fast=0[main];[1:v]settb=AVTB,setpts=PTS-STARTPTS,format=pix_fmts=yuv420p,fps=24000/1001,scale=1920:1080:flags=lanczos:param0=3:out_range=limited:out_color_matrix=bt709:out_chroma_loc=left,setsar=1/1,setdar=(1920/1080)*(1/1),colorspace=format=yuv420p:range=tv:primaries=bt709:trc=bt709:space=bt709:fast=0[ref];[main][ref]ssim=eof_action=endall:stats_file='D\\:/Convert/FFMetrics/logs/ssim_logfile-6.txt'" -f null -
Input #0, matroska,webm, from 'F:\Convert\files\[DC] Make Heroine ga Oosugiru - 07_Telegram_HEVC(307).mkv':
  Metadata:
    COMPATIBLE_BRANDS: isomiso2avc1mp41
    MAJOR_BRAND     : isom
    MINOR_VERSION   : 512
    ENCODER         : Lavf61.7.100
  Duration: 00:24:06.79, start: -0.021000, bitrate: 865 kb/s
  Stream #0:0: Video: hevc (Main 10), yuv420p10le(tv, bt709, progressive), 1920x1080 [SAR 1:1 DAR 16:9], 23.98 fps, 23.98 tbr, 1k tbn (default)
      Metadata:
        HANDLER_NAME    : VideoHandler
        VENDOR_ID       : [0][0][0][0]
        ENCODER         : Lavc61.19.100 libx265
        BPS             : 668472
        DURATION        : 00:24:06.569708333
        NUMBER_OF_FRAMES: 34683
        NUMBER_OF_BYTES : 120873986
        _STATISTICS_WRITING_APP: mkvpropedit v94.0 ('Initiate') 64-bit
        _STATISTICS_WRITING_DATE_UTC: 2026-04-09 15:52:53
        _STATISTICS_TAGS: BPS DURATION NUMBER_OF_FRAMES NUMBER_OF_BYTES
  Stream #0:1: Audio: aac (LC), 48000 Hz, stereo, fltp (default)
      Metadata:
        HANDLER_NAME    : SoundHandler
        VENDOR_ID       : [0][0][0][0]
        ENCODER         : Lavc61.19.100 aac
        BPS             : 193194
        DURATION        : 00:24:06.784000000
        NUMBER_OF_FRAMES: 67819
        NUMBER_OF_BYTES : 34938755
        _STATISTICS_WRITING_APP: mkvpropedit v94.0 ('Initiate') 64-bit
        _STATISTICS_WRITING_DATE_UTC: 2026-04-09 15:52:53
        _STATISTICS_TAGS: BPS DURATION NUMBER_OF_FRAMES NUMBER_OF_BYTES
Input #1, mov,mp4,m4a,3gp,3g2,mj2, from 'F:\Convert\files\[DC] Make Heroine ga Oosugiru - 07_Telegram.mp4':
  Metadata:
    major_brand     : isom
    minor_version   : 512
    compatible_brands: isomiso2avc1mp41
    encoder         : Lavf60.16.100
  Duration: 00:24:06.74, start: 0.000000, bitrate: 3764 kb/s
  Stream #1:0[0x1](und): Video: h264 (High) (avc1 / 0x31637661), yuv420p(tv, bt709, progressive), 1920x1080 [SAR 1:1 DAR 16:9], 3616 kb/s, 23.98 fps, 23.98 tbr, 24k tbn (default)
      Metadata:
        handler_name    : VideoHandler
        vendor_id       : [0][0][0][0]
        encoder         : Lavc60.31.102 h264_qsv
  Stream #1:1[0x2](und): Audio: aac (HE-AACv2) (mp4a / 0x6134706D), 48000 Hz, stereo, fltp, 144 kb/s (default)
      Metadata:
        handler_name    : SoundHandler
        vendor_id       : [0][0][0][0]
Stream mapping:
  Stream #0:0 (hevc) -> settb:default
  Stream #1:0 (h264) -> settb:default
  ssim:default -> Stream #0:0 (wrapped_avframe)
  Stream #0:1 -> #0:1 (aac (native) -> pcm_s16le (native))
Output #0, null, to 'pipe:':
  Metadata:
    COMPATIBLE_BRANDS: isomiso2avc1mp41
    MAJOR_BRAND     : isom
    MINOR_VERSION   : 512
    encoder         : Lavf61.7.100
  Stream #0:0: Video: wrapped_avframe, yuv420p10le(tv, bt709, progressive), 1920x1080 [SAR 1:1 DAR 16:9], q=2-31, 200 kb/s, 23.98 fps, 23.98 tbn
      Metadata:
        encoder         : Lavc61.19.100 wrapped_avframe
  Stream #0:1: Audio: pcm_s16le, 48000 Hz, stereo, s16, 1536 kb/s (default)
      Metadata:
        HANDLER_NAME    : SoundHandler
        VENDOR_ID       : [0][0][0][0]
        _STATISTICS_TAGS: BPS DURATION NUMBER_OF_FRAMES NUMBER_OF_BYTES
        BPS             : 193194
        DURATION        : 00:24:06.784000000
        NUMBER_OF_FRAMES: 67819
        NUMBER_OF_BYTES : 34938755
        _STATISTICS_WRITING_APP: mkvpropedit v94.0 ('Initiate') 64-bit
        _STATISTICS_WRITING_DATE_UTC: 2026-04-09 15:52:53
        encoder         : Lavc61.19.100 pcm_s16le
frame=  108 fps=0.0 q=-0.0 size=N/A time=00:00:04.50 bitrate=N/A speed=8.58x    frame=  280 fps=270 q=-0.0 size=N/A time=00:00:11.67 bitrate=N/A speed=11.3x    frame=  442 fps=285 q=-0.0 size=N/A time=00:00:18.43 bitrate=N/A speed=11.9x    frame=  620 fps=301 q=-0.0 size=N/A time=00:00:25.85 bitrate=N/A speed=12.5x    frame=  791 fps=306 q=-0.0 size=N/A time=00:00:32.99 bitrate=N/A speed=12.7x    frame= 1067 fps=304 q=-0.0 size=N/A time=00:00:44.50 bitrate=N/A speed=12.7x    frame= 1220 fps=302 q=-0.0 size=N/A time=00:00:50.88 bitrate=N/A speed=12.6x    frame= 1373 fps=302 q=-0.0 size=N/A time=00:00:57.26 bitrate=N/A speed=12.6x    frame= 1513 fps=299 q=-0.0 size=N/A time=00:01:03.10 bitrate=N/A speed=12.5x    frame= 1646 fps=294 q=-0.0 size=N/A time=00:01:08.65 bitrate=N/A speed=12.3x    frame= 1806 fps=296 q=-0.0 size=N/A time=00:01:15.32 bitrate=N/A speed=12.3x    frame= 1959 fps=296 q=-0.0 size=N/A time=00:01:21.70 bitrate=N/A speed=12.4x    frame= 2082 fps=292 q=-0.0 size=N/A time=00:01:26.83 bitrate=N/A speed=12.2x    frame= 2222 fps=290 q=-0.0 size=N/A time=00:01:32.67 bitrate=N/A speed=12.1x    frame= 2363 fps=290 q=-0.0 size=N/A time=00:01:38.55 bitrate=N/A speed=12.1x    frame= 2490 fps=287 q=-0.0 size=N/A time=00:01:43.85 bitrate=N/A speed=  12x    frame= 2642 fps=288 q=-0.0 size=N/A time=00:01:50.19 bitrate=N/A speed=  12x    frame= 2726 fps=281 q=-0.0 size=N/A time=00:01:53.69 bitrate=N/A speed=11.7x    frame= 2896 fps=283 q=-0.0 size=N/A time=00:02:00.78 bitrate=N/A speed=11.8x    frame= 3066 fps=286 q=-0.0 size=N/A time=00:02:07.87 bitrate=N/A speed=11.9x    frame= 3245 fps=288 q=-0.0 size=N/A time=00:02:15.34 bitrate=N/A speed=  12x    frame= 3418 fps=290 q=-0.0 size=N/A time=00:02:22.55 bitrate=N/A speed=12.1x    frame= 3597 fps=293 q=-0.0 size=N/A time=00:02:30.02 bitrate=N/A speed=12.2x    frame= 3779 fps=295 q=-0.0 size=N/A time=00:02:37.61 bitrate=N/A speed=12.3x    frame= 3955 fps=297 q=-0.0 size=N/A time=00:02:44.95 bitrate=N/A speed=12.4x    frame= 4011 fps=290 q=-0.0 size=N/A time=00:02:47.29 bitrate=N/A speed=12.1x    frame= 4188 fps=292 q=-0.0 size=N/A time=00:02:54.67 bitrate=N/A speed=12.2x    frame= 4358 fps=293 q=-0.0 size=N/A time=00:03:01.76 bitrate=N/A speed=12.2x    frame= 4533 fps=295 q=-0.0 size=N/A time=00:03:09.06 bitrate=N/A speed=12.3x    frame= 4705 fps=296 q=-0.0 size=N/A time=00:03:16.23 bitrate=N/A speed=12.3x    frame= 4884 fps=298 q=-0.0 size=N/A time=00:03:23.70 bitrate=N/A speed=12.4x    frame= 5056 fps=299 q=-0.0 size=N/A time=00:03:30.87 bitrate=N/A speed=12.5x    frame= 5229 fps=300 q=-0.0 size=N/A time=00:03:38.09 bitrate=N/A speed=12.5x    frame= 5406 fps=301 q=-0.0 size=N/A time=00:03:45.47 bitrate=N/A speed=12.6x    frame= 5574 fps=302 q=-0.0 size=N/A time=00:03:52.48 bitrate=N/A speed=12.6x    frame= 5747 fps=303 q=-0.0 size=N/A time=00:03:59.69 bitrate=N/A speed=12.6x    frame= 5925 fps=304 q=-0.0 size=N/A time=00:04:07.12 bitrate=N/A speed=12.7x    frame= 6098 fps=305 q=-0.0 size=N/A time=00:04:14.33 bitrate=N/A speed=12.7x    frame= 6272 fps=305 q=-0.0 size=N/A time=00:04:21.59 bitrate=N/A speed=12.7x    frame= 6447 fps=306 q=-0.0 size=N/A time=00:04:28.89 bitrate=N/A speed=12.8x    frame= 6621 fps=307 q=-0.0 size=N/A time=00:04:36.15 bitrate=N/A speed=12.8x    frame= 6793 fps=308 q=-0.0 size=N/A time=00:04:43.32 bitrate=N/A speed=12.8x    frame= 6964 fps=308 q=-0.0 size=N/A time=00:04:50.45 bitrate=N/A speed=12.8x    frame= 7133 fps=309 q=-0.0 size=N/A time=00:04:57.50 bitrate=N/A speed=12.9x    frame= 7311 fps=309 q=-0.0 size=N/A time=00:05:04.92 bitrate=N/A speed=12.9x    frame= 7485 fps=310 q=-0.0 size=N/A time=00:05:12.18 bitrate=N/A speed=12.9x    frame= 7654 fps=310 q=-0.0 size=N/A time=00:05:19.23 bitrate=N/A speed=12.9x    frame= 7825 fps=311 q=-0.0 size=N/A time=00:05:26.36 bitrate=N/A speed=  13x    frame= 8007 fps=312 q=-0.0 size=N/A time=00:05:33.95 bitrate=N/A speed=  13x    frame= 8172 fps=312 q=-0.0 size=N/A time=00:05:40.84 bitrate=N/A speed=  13x    frame= 8338 fps=312 q=-0.0 size=N/A time=00:05:47.76 bitrate=N/A speed=  13x    frame= 8508 fps=312 q=-0.0 size=N/A time=00:05:54.85 bitrate=N/A speed=  13x    frame= 8684 fps=313 q=-0.0 size=N/A time=00:06:02.19 bitrate=N/A speed=  13x    frame= 8855 fps=313 q=-0.0 size=N/A time=00:06:09.32 bitrate=N/A speed=13.1x    frame= 9025 fps=313 q=-0.0 size=N/A time=00:06:16.41 bitrate=N/A speed=13.1x    frame= 9196 fps=314 q=-0.0 size=N/A time=00:06:23.54 bitrate=N/A speed=13.1x    frame= 9366 fps=314 q=-0.0 size=N/A time=00:06:30.64 bitrate=N/A speed=13.1x    frame= 9533 fps=314 q=-0.0 size=N/A time=00:06:37.60 bitrate=N/A speed=13.1x    frame= 9700 fps=314 q=-0.0 size=N/A time=00:06:44.57 bitrate=N/A speed=13.1x    frame= 9880 fps=315 q=-0.0 size=N/A time=00:06:52.07 bitrate=N/A speed=13.1x    frame=10045 fps=315 q=-0.0 size=N/A time=00:06:58.96 bitrate=N/A speed=13.1x    frame=10215 fps=315 q=-0.0 size=N/A time=00:07:06.05 bitrate=N/A speed=13.1x    frame=10380 fps=315 q=-0.0 size=N/A time=00:07:12.93 bitrate=N/A speed=13.1x    frame=10544 fps=315 q=-0.0 size=N/A time=00:07:19.77 bitrate=N/A speed=13.1x    frame=10702 fps=315 q=-0.0 size=N/A time=00:07:26.36 bitrate=N/A speed=13.1x    frame=10871 fps=315 q=-0.0 size=N/A time=00:07:33.41 bitrate=N/A speed=13.1x    frame=11035 fps=315 q=-0.0 size=N/A time=00:07:40.25 bitrate=N/A speed=13.2x    frame=11199 fps=315 q=-0.0 size=N/A time=00:07:47.09 bitrate=N/A speed=13.2x    frame=11373 fps=316 q=-0.0 size=N/A time=00:07:54.34 bitrate=N/A speed=13.2x    frame=11537 fps=316 q=-0.0 size=N/A time=00:08:01.18 bitrate=N/A speed=13.2x    frame=11700 fps=316 q=-0.0 size=N/A time=00:08:07.98 bitrate=N/A speed=13.2x    frame=11858 fps=316 q=-0.0 size=N/A time=00:08:14.57 bitrate=N/A speed=13.2x    frame=12013 fps=315 q=-0.0 size=N/A time=00:08:21.04 bitrate=N/A speed=13.2x    frame=12178 fps=316 q=-0.0 size=N/A time=00:08:27.92 bitrate=N/A speed=13.2x    frame=12343 fps=315 q=-0.0 size=N/A time=00:08:34.80 bitrate=N/A speed=13.2x    frame=12509 fps=315 q=-0.0 size=N/A time=00:08:41.72 bitrate=N/A speed=13.2x    frame=12671 fps=316 q=-0.0 size=N/A time=00:08:48.48 bitrate=N/A speed=13.2x    frame=12835 fps=315 q=-0.0 size=N/A time=00:08:55.32 bitrate=N/A speed=13.2x    frame=12998 fps=316 q=-0.0 size=N/A time=00:09:02.12 bitrate=N/A speed=13.2x    frame=13172 fps=316 q=-0.0 size=N/A time=00:09:09.38 bitrate=N/A speed=13.2x    frame=13342 fps=316 q=-0.0 size=N/A time=00:09:16.47 bitrate=N/A speed=13.2x    frame=13515 fps=316 q=-0.0 size=N/A time=00:09:23.68 bitrate=N/A speed=13.2x    frame=13685 fps=316 q=-0.0 size=N/A time=00:09:30.77 bitrate=N/A speed=13.2x    frame=13841 fps=316 q=-0.0 size=N/A time=00:09:37.28 bitrate=N/A speed=13.2x    frame=14015 fps=316 q=-0.0 size=N/A time=00:09:44.54 bitrate=N/A speed=13.2x    frame=14181 fps=317 q=-0.0 size=N/A time=00:09:51.46 bitrate=N/A speed=13.2x    frame=14354 fps=317 q=-0.0 size=N/A time=00:09:58.68 bitrate=N/A speed=13.2x    frame=14522 fps=317 q=-0.0 size=N/A time=00:10:05.68 bitrate=N/A speed=13.2x    frame=14691 fps=317 q=-0.0 size=N/A time=00:10:12.73 bitrate=N/A speed=13.2x    frame=14862 fps=317 q=-0.0 size=N/A time=00:10:19.86 bitrate=N/A speed=13.2x    frame=15032 fps=317 q=-0.0 size=N/A time=00:10:26.95 bitrate=N/A speed=13.2x    frame=15178 fps=317 q=-0.0 size=N/A time=00:10:33.04 bitrate=N/A speed=13.2x    frame=15348 fps=317 q=-0.0 size=N/A time=00:10:40.13 bitrate=N/A speed=13.2x    frame=15501 fps=317 q=-0.0 size=N/A time=00:10:46.52 bitrate=N/A speed=13.2x    frame=15662 fps=317 q=-0.0 size=N/A time=00:10:53.23 bitrate=N/A speed=13.2x    frame=15833 fps=317 q=-0.0 size=N/A time=00:11:00.36 bitrate=N/A speed=13.2x    frame=16007 fps=317 q=-0.0 size=N/A time=00:11:07.62 bitrate=N/A speed=13.2x    frame=16175 fps=317 q=-0.0 size=N/A time=00:11:14.63 bitrate=N/A speed=13.2x    frame=16351 fps=317 q=-0.0 size=N/A time=00:11:21.97 bitrate=N/A speed=13.2x    frame=16530 fps=318 q=-0.0 size=N/A time=00:11:29.43 bitrate=N/A speed=13.3x    frame=16703 fps=318 q=-0.0 size=N/A time=00:11:36.65 bitrate=N/A speed=13.3x    frame=16877 fps=318 q=-0.0 size=N/A time=00:11:43.91 bitrate=N/A speed=13.3x    frame=17052 fps=318 q=-0.0 size=N/A time=00:11:51.21 bitrate=N/A speed=13.3x    frame=17226 fps=319 q=-0.0 size=N/A time=00:11:58.46 bitrate=N/A speed=13.3x    frame=17408 fps=319 q=-0.0 size=N/A time=00:12:06.05 bitrate=N/A speed=13.3x    frame=17579 fps=319 q=-0.0 size=N/A time=00:12:13.19 bitrate=N/A speed=13.3x    frame=17746 fps=319 q=-0.0 size=N/A time=00:12:20.15 bitrate=N/A speed=13.3x    frame=17928 fps=319 q=-0.0 size=N/A time=00:12:27.74 bitrate=N/A speed=13.3x    frame=18103 fps=319 q=-0.0 size=N/A time=00:12:35.04 bitrate=N/A speed=13.3x    frame=18271 fps=320 q=-0.0 size=N/A time=00:12:42.05 bitrate=N/A speed=13.3x    frame=18442 fps=320 q=-0.0 size=N/A time=00:12:49.18 bitrate=N/A speed=13.3x    frame=18619 fps=320 q=-0.0 size=N/A time=00:12:56.56 bitrate=N/A speed=13.3x    frame=18783 fps=320 q=-0.0 size=N/A time=00:13:03.40 bitrate=N/A speed=13.3x    frame=18947 fps=320 q=-0.0 size=N/A time=00:13:10.24 bitrate=N/A speed=13.3x    frame=19100 fps=320 q=-0.0 size=N/A time=00:13:16.62 bitrate=N/A speed=13.3x    frame=19185 fps=318 q=-0.0 size=N/A time=00:13:20.17 bitrate=N/A speed=13.3x    frame=19352 fps=318 q=-0.0 size=N/A time=00:13:27.13 bitrate=N/A speed=13.3x    frame=19530 fps=319 q=-0.0 size=N/A time=00:13:34.56 bitrate=N/A speed=13.3x    frame=19702 fps=319 q=-0.0 size=N/A time=00:13:41.73 bitrate=N/A speed=13.3x    frame=19873 fps=319 q=-0.0 size=N/A time=00:13:48.86 bitrate=N/A speed=13.3x    frame=20045 fps=319 q=-0.0 size=N/A time=00:13:56.04 bitrate=N/A speed=13.3x    frame=20223 fps=319 q=-0.0 size=N/A time=00:14:03.46 bitrate=N/A speed=13.3x    frame=20391 fps=319 q=-0.0 size=N/A time=00:14:10.47 bitrate=N/A speed=13.3x    frame=20552 fps=319 q=-0.0 size=N/A time=00:14:17.18 bitrate=N/A speed=13.3x    frame=20713 fps=319 q=-0.0 size=N/A time=00:14:23.90 bitrate=N/A speed=13.3x    frame=20884 fps=319 q=-0.0 size=N/A time=00:14:31.03 bitrate=N/A speed=13.3x    frame=21044 fps=319 q=-0.0 size=N/A time=00:14:37.71 bitrate=N/A speed=13.3x    frame=21206 fps=319 q=-0.0 size=N/A time=00:14:44.46 bitrate=N/A speed=13.3x    frame=21383 fps=319 q=-0.0 size=N/A time=00:14:51.84 bitrate=N/A speed=13.3x    frame=21553 fps=319 q=-0.0 size=N/A time=00:14:58.93 bitrate=N/A speed=13.3x    frame=21727 fps=319 q=-0.0 size=N/A time=00:15:06.19 bitrate=N/A speed=13.3x    frame=21898 fps=320 q=-0.0 size=N/A time=00:15:13.32 bitrate=N/A speed=13.3x    frame=22071 fps=320 q=-0.0 size=N/A time=00:15:20.54 bitrate=N/A speed=13.3x    frame=22243 fps=320 q=-0.0 size=N/A time=00:15:27.71 bitrate=N/A speed=13.3x    frame=22414 fps=320 q=-0.0 size=N/A time=00:15:34.85 bitrate=N/A speed=13.3x    frame=22581 fps=320 q=-0.0 size=N/A time=00:15:41.81 bitrate=N/A speed=13.3x    frame=22746 fps=320 q=-0.0 size=N/A time=00:15:48.69 bitrate=N/A speed=13.3x    frame=22915 fps=320 q=-0.0 size=N/A time=00:15:55.74 bitrate=N/A speed=13.3x    frame=23088 fps=320 q=-0.0 size=N/A time=00:16:02.96 bitrate=N/A speed=13.3x    frame=23252 fps=320 q=-0.0 size=N/A time=00:16:09.80 bitrate=N/A speed=13.3x    frame=23432 fps=320 q=-0.0 size=N/A time=00:16:17.30 bitrate=N/A speed=13.4x    frame=23506 fps=319 q=-0.0 size=N/A time=00:16:20.39 bitrate=N/A speed=13.3x    frame=23688 fps=319 q=-0.0 size=N/A time=00:16:27.98 bitrate=N/A speed=13.3x    frame=23856 fps=319 q=-0.0 size=N/A time=00:16:34.99 bitrate=N/A speed=13.3x    frame=24041 fps=319 q=-0.0 size=N/A time=00:16:42.71 bitrate=N/A speed=13.3x    frame=24210 fps=319 q=-0.0 size=N/A time=00:16:49.75 bitrate=N/A speed=13.3x    frame=24383 fps=319 q=-0.0 size=N/A time=00:16:56.97 bitrate=N/A speed=13.3x    frame=24554 fps=319 q=-0.0 size=N/A time=00:17:04.10 bitrate=N/A speed=13.3x    frame=24721 fps=319 q=-0.0 size=N/A time=00:17:11.07 bitrate=N/A speed=13.3x    frame=24898 fps=319 q=-0.0 size=N/A time=00:17:18.45 bitrate=N/A speed=13.3x    frame=25052 fps=319 q=-0.0 size=N/A time=00:17:24.87 bitrate=N/A speed=13.3x    frame=25222 fps=319 q=-0.0 size=N/A time=00:17:31.96 bitrate=N/A speed=13.3x    frame=25396 fps=319 q=-0.0 size=N/A time=00:17:39.22 bitrate=N/A speed=13.3x    frame=25568 fps=320 q=-0.0 size=N/A time=00:17:46.39 bitrate=N/A speed=13.3x    frame=25745 fps=320 q=-0.0 size=N/A time=00:17:53.78 bitrate=N/A speed=13.3x    frame=25917 fps=320 q=-0.0 size=N/A time=00:18:00.95 bitrate=N/A speed=13.3x    frame=26090 fps=320 q=-0.0 size=N/A time=00:18:08.17 bitrate=N/A speed=13.3x    frame=26290 fps=320 q=-0.0 size=N/A time=00:18:16.51 bitrate=N/A speed=13.3x    frame=26461 fps=320 q=-0.0 size=N/A time=00:18:23.64 bitrate=N/A speed=13.3x    frame=26633 fps=320 q=-0.0 size=N/A time=00:18:30.81 bitrate=N/A speed=13.3x    frame=26806 fps=320 q=-0.0 size=N/A time=00:18:38.03 bitrate=N/A speed=13.3x    frame=26971 fps=320 q=-0.0 size=N/A time=00:18:44.91 bitrate=N/A speed=13.3x    frame=27150 fps=318 q=-0.0 size=N/A time=00:18:52.38 bitrate=N/A speed=13.3x    frame=27317 fps=319 q=-0.0 size=N/A time=00:18:59.34 bitrate=N/A speed=13.3x    frame=27492 fps=319 q=-0.0 size=N/A time=00:19:06.64 bitrate=N/A speed=13.3x    frame=27663 fps=319 q=-0.0 size=N/A time=00:19:13.77 bitrate=N/A speed=13.3x    frame=27828 fps=319 q=-0.0 size=N/A time=00:19:20.65 bitrate=N/A speed=13.3x    frame=28009 fps=319 q=-0.0 size=N/A time=00:19:28.20 bitrate=N/A speed=13.3x    frame=28179 fps=319 q=-0.0 size=N/A time=00:19:35.29 bitrate=N/A speed=13.3x    frame=28357 fps=319 q=-0.0 size=N/A time=00:19:42.72 bitrate=N/A speed=13.3x    frame=28534 fps=319 q=-0.0 size=N/A time=00:19:50.10 bitrate=N/A speed=13.3x    frame=28706 fps=319 q=-0.0 size=N/A time=00:19:57.27 bitrate=N/A speed=13.3x    frame=28865 fps=319 q=-0.0 size=N/A time=00:20:03.91 bitrate=N/A speed=13.3x    frame=29029 fps=319 q=-0.0 size=N/A time=00:20:10.75 bitrate=N/A speed=13.3x    frame=29183 fps=319 q=-0.0 size=N/A time=00:20:17.17 bitrate=N/A speed=13.3x    frame=29346 fps=319 q=-0.0 size=N/A time=00:20:23.97 bitrate=N/A speed=13.3x    frame=29506 fps=319 q=-0.0 size=N/A time=00:20:30.64 bitrate=N/A speed=13.3x    frame=29672 fps=319 q=-0.0 size=N/A time=00:20:37.56 bitrate=N/A speed=13.3x    frame=29843 fps=319 q=-0.0 size=N/A time=00:20:44.70 bitrate=N/A speed=13.3x    frame=30001 fps=319 q=-0.0 size=N/A time=00:20:51.29 bitrate=N/A speed=13.3x    frame=30168 fps=319 q=-0.0 size=N/A time=00:20:58.25 bitrate=N/A speed=13.3x    frame=30341 fps=319 q=-0.0 size=N/A time=00:21:05.47 bitrate=N/A speed=13.3x    frame=30508 fps=319 q=-0.0 size=N/A time=00:21:12.43 bitrate=N/A speed=13.3x    frame=30684 fps=319 q=-0.0 size=N/A time=00:21:19.77 bitrate=N/A speed=13.3x    frame=30832 fps=319 q=-0.0 size=N/A time=00:21:25.95 bitrate=N/A speed=13.3x    frame=30995 fps=319 q=-0.0 size=N/A time=00:21:32.74 bitrate=N/A speed=13.3x    frame=31168 fps=319 q=-0.0 size=N/A time=00:21:39.96 bitrate=N/A speed=13.3x    frame=31342 fps=319 q=-0.0 size=N/A time=00:21:47.22 bitrate=N/A speed=13.3x    frame=31509 fps=319 q=-0.0 size=N/A time=00:21:54.18 bitrate=N/A speed=13.3x    frame=31672 fps=319 q=-0.0 size=N/A time=00:22:00.98 bitrate=N/A speed=13.3x    frame=31844 fps=319 q=-0.0 size=N/A time=00:22:08.16 bitrate=N/A speed=13.3x    frame=32007 fps=319 q=-0.0 size=N/A time=00:22:14.95 bitrate=N/A speed=13.3x    frame=32171 fps=319 q=-0.0 size=N/A time=00:22:21.79 bitrate=N/A speed=13.3x    frame=32335 fps=319 q=-0.0 size=N/A time=00:22:28.63 bitrate=N/A speed=13.3x    frame=32510 fps=319 q=-0.0 size=N/A time=00:22:35.93 bitrate=N/A speed=13.3x    frame=32665 fps=319 q=-0.0 size=N/A time=00:22:42.40 bitrate=N/A speed=13.3x    frame=32821 fps=319 q=-0.0 size=N/A time=00:22:48.90 bitrate=N/A speed=13.3x    frame=32981 fps=319 q=-0.0 size=N/A time=00:22:55.58 bitrate=N/A speed=13.3x    frame=33147 fps=319 q=-0.0 size=N/A time=00:23:02.50 bitrate=N/A speed=13.3x    frame=33316 fps=319 q=-0.0 size=N/A time=00:23:09.55 bitrate=N/A speed=13.3x    frame=33477 fps=319 q=-0.0 size=N/A time=00:23:16.26 bitrate=N/A speed=13.3x    frame=33630 fps=319 q=-0.0 size=N/A time=00:23:22.65 bitrate=N/A speed=13.3x    frame=33768 fps=319 q=-0.0 size=N/A time=00:23:28.40 bitrate=N/A speed=13.3x    frame=33886 fps=318 q=-0.0 size=N/A time=00:23:33.32 bitrate=N/A speed=13.3x    frame=34043 fps=318 q=-0.0 size=N/A time=00:23:39.87 bitrate=N/A speed=13.3x    frame=34206 fps=318 q=-0.0 size=N/A time=00:23:46.67 bitrate=N/A speed=13.3x    frame=34346 fps=318 q=-0.0 size=N/A time=00:23:52.51 bitrate=N/A speed=13.3x    frame=34475 fps=318 q=-0.0 size=N/A time=00:23:57.89 bitrate=N/A speed=13.3x    frame=34636 fps=318 q=-0.0 size=N/A time=00:24:04.60 bitrate=N/A speed=13.3x    [Parsed_ssim_16 @ 0000021dda22bc00] SSIM Y:0.993484 (21.860161) U:0.993808 (22.081959) V:0.993396 (21.801810) All:0.993523 (21.886488)
[out#0/null @ 0000021dcd89dec0] video:14903KiB audio:271276KiB subtitle:0KiB other streams:0KiB global headers:0KiB muxing overhead: unknown
frame=34683 fps=318 q=-0.0 Lsize=N/A time=00:24:06.57 bitrate=N/A speed=13.3x    
